<svg width="20" height="20" viewBox="0 0 20 20" fill="none" xmlns="http://www.w3.org/2000/svg">
<path d="M15.8333 1.66663H7.5C6.58083 1.66663 5.83333 2.41413 5.83333 3.33329V8.33329H4.16667C3.2475 8.33329 2.5 9.08079 2.5 9.99996V17.5C2.5 17.721 2.5878 17.9329 2.74408 18.0892C2.90036 18.2455 3.11232 18.3333 3.33333 18.3333H16.6667C16.8877 18.3333 17.0996 18.2455 17.2559 18.0892C17.4122 17.9329 17.5 17.721 17.5 17.5V3.33329C17.5 2.41413 16.7525 1.66663 15.8333 1.66663ZM4.16667 9.99996H9.16667V16.6666H4.16667V9.99996ZM15.8333 16.6666H10.8333V9.99996C10.8333 9.08079 10.0858 8.33329 9.16667 8.33329H7.5V3.33329H15.8333V16.6666Z" fill="#2D3748"/>
<path d="M9.16732 5H10.834V6.66667H9.16732V5ZM12.5007 5H14.1673V6.66667H12.5007V5ZM12.5007 8.35917H14.1673V10H12.5007V8.35917ZM12.5007 11.6667H14.1673V13.3333H12.5007V11.6667ZM5.83398 11.6675H7.50065V13.3342H5.83398V11.6675Z" fill="#2D3748"/>
</svg>
