<svg width="20" height="20" viewBox="0 0 20 20" fill="none" xmlns="http://www.w3.org/2000/svg">
<path d="M3.33398 8.75C2.64232 8.75 2.08398 9.30833 2.08398 10C2.08398 10.6917 2.64232 11.25 3.33398 11.25C4.02565 11.25 4.58398 10.6917 4.58398 10C4.58398 9.30833 4.02565 8.75 3.33398 8.75ZM3.33398 3.75C2.64232 3.75 2.08398 4.30833 2.08398 5C2.08398 5.69167 2.64232 6.25 3.33398 6.25C4.02565 6.25 4.58398 5.69167 4.58398 5C4.58398 4.30833 4.02565 3.75 3.33398 3.75ZM3.33398 13.75C2.64232 13.75 2.08398 14.3167 2.08398 15C2.08398 15.6833 2.65065 16.25 3.33398 16.25C4.01732 16.25 4.58398 15.6833 4.58398 15C4.58398 14.3167 4.02565 13.75 3.33398 13.75ZM5.83398 15.8333H17.5007V14.1667H5.83398V15.8333ZM5.83398 10.8333H17.5007V9.16667H5.83398V10.8333ZM5.83398 4.16667V5.83333H17.5007V4.16667H5.83398Z" fill="white"/>
</svg>
